<svg width="140" height="34" viewBox="0 0 140 34" fill="none" xmlns="http://www.w3.org/2000/svg">
<path d="M34.3713 18.6559V30.4231C34.401 32.3994 35.8915 33.3866 38.8429 33.3847C41.8239 33.3847 43.3144 32.373 43.3144 30.3495V23.4749C44.8494 26.6375 44.9411 26.9575 47.4856 29.5001C49.891 31.9011 53.9259 33.4328 56.982 33.4328C57.3101 33.4328 57.6438 33.4328 57.9859 33.3847C59.9714 32.7845 61.0345 31.4726 61.1754 29.4491C61.1754 29.2934 61.1977 29.149 61.1977 29.0244C61.1977 27.2368 60.3903 26.0901 58.7756 25.5843C57.1933 25.0803 54.407 25.1341 50.4165 19.7743C55.6166 18.4001 58.2167 15.2309 58.2167 10.2666C58.2167 3.42218 53.2492 0 43.3144 0H38.7956C35.8757 0.0169882 34.401 1.00514 34.3713 2.96445V14.3211" fill="white"/>
<path d="M17.1829 0C9.07909 0 5.02814 5.06558 5.03003 15.1967V30.4644C5.06026 32.4433 6.57937 33.4328 9.58735 33.4328C12.6256 33.4328 14.1447 32.4197 14.1447 30.3935V15.1967C14.1447 11.1462 15.1574 9.11994 17.1829 9.11805C19.2084 9.11616 20.2211 11.1424 20.2211 15.1967V30.3935C20.2211 32.4197 21.7402 33.4328 24.7784 33.4328C27.8166 33.4328 29.3376 32.4197 29.3414 30.3935V15.1967C29.3414 5.06558 25.2886 0 17.1829 0Z" fill="white"/>
<path d="M42.6432 9.1101C42.6105 9.13973 42.5763 9.1676 42.5407 9.19357L42.4134 9.29651L42.1365 9.50518C41.9482 9.64429 41.7543 9.78341 41.5605 9.91974C41.1673 10.198 40.7631 10.4762 40.356 10.7322C39.5346 11.2589 38.691 11.7616 37.8252 12.2401C36.0864 13.1979 34.2937 14.0535 32.4562 14.8026C28.7707 16.305 24.8692 16.9811 20.8986 17.6182C20.3614 17.7128 19.8214 17.7879 19.2815 17.8575V20.8957C19.91 20.879 20.5386 20.8595 21.1644 20.8122C25.4245 20.5327 29.6397 19.7711 33.7299 18.5419C35.7762 17.941 37.7587 17.0284 39.7385 16.1854C40.7169 15.7643 41.6934 15.3062 42.6681 14.8109C43.1527 14.5633 43.6345 14.3073 44.1163 14.0375C44.3572 13.9011 44.5981 13.7592 44.8417 13.6173L45.2072 13.3948L45.3955 13.2751C45.462 13.2334 45.5201 13.1972 45.6087 13.1332L45.8718 12.9524C46.4422 12.5524 46.8221 11.9327 46.9208 11.2408C47.0194 10.5489 46.8281 9.8469 46.3923 9.30208C45.9431 8.74049 45.2767 8.39834 44.5606 8.36168C43.8445 8.32501 43.1469 8.59731 42.6432 9.1101Z" fill="#FC1AA0"/>
<path d="M0.114476 17.8292C2.00282 18.3445 3.92177 18.8231 5.86826 19.2234V18.1536C3.96462 18.0132 2.09464 17.8292 0.218534 17.5531C0.123476 17.5435 0.0334777 17.5878 0.00733162 17.6572C-0.0188144 17.7266 0.0268425 17.7998 0.114476 17.8292Z" fill="#FC1AA0"/>
<path d="M82.6175 0C79.5815 0 78.0636 1.01312 78.0636 3.03935V9.11805C78.0636 13.1724 77.0509 15.1986 75.0257 15.1967C72.9995 15.1967 71.9878 10.1331 71.9878 6.0787V3.03935C71.9878 1.01501 70.4689 0.00189014 67.4311 0C64.4253 0 62.9064 0.989489 62.8743 2.96847V6.0872C62.8743 14.0967 65.4049 21.9814 70.4689 23.6655V30.47C70.5067 32.4452 72.0256 33.4328 75.0257 33.4328C78.0711 33.4328 79.5938 32.4197 79.5938 30.3935V23.6513C84.655 21.9729 87.1856 17.1285 87.1856 9.11805V3.03935C87.1781 1.01501 85.6554 0.00189014 82.6175 0Z" fill="white"/>
<path d="M102.37 9.11805H114.384C116.37 9.11805 117.363 7.59837 117.365 4.55902C117.367 1.51967 116.373 0 114.384 0H102.462C94.5149 0 90.5407 5.08921 90.5388 15.2676V18.307C90.5388 28.3909 94.4742 33.4328 102.345 33.4328H114.384C116.37 33.4328 117.363 31.9132 117.365 28.8738C117.367 25.8345 116.373 24.3148 114.384 24.3148H102.462C101.049 24.3148 100.141 23.3017 99.7367 21.2754H111.415C113.402 21.2754 114.396 19.7558 114.396 16.7164C114.396 13.6771 113.398 12.1612 111.404 12.1687H99.7256C100.122 10.1368 101.004 9.11994 102.37 9.11805Z" fill="white"/>
<path d="M136.901 24.3148H131.698V3.05069C131.694 1.01879 130.143 0.00189014 127.044 0C123.977 0 122.428 0.989489 122.395 2.96847V30.47C122.428 32.4452 123.977 33.4328 127.044 33.4328H136.901C138.967 33.4328 140 31.9132 140 28.8738C140 25.8345 138.967 24.3148 136.901 24.3148Z" fill="white"/>
<path d="M40.6587 8.35828C40.8902 8.35828 41.0778 8.17118 41.0778 7.94037C41.0778 7.70957 40.8902 7.52246 40.6587 7.52246C40.4272 7.52246 40.2395 7.70957 40.2395 7.94037C40.2395 8.17118 40.4272 8.35828 40.6587 8.35828Z" fill="#FC1AA0"/>
<path d="M49.8803 7.52234C50.1118 7.52234 50.2995 7.33524 50.2995 7.10443C50.2995 6.87363 50.1118 6.68652 49.8803 6.68652C49.6488 6.68652 49.4612 6.87363 49.4612 7.10443C49.4612 7.21527 49.5053 7.32157 49.584 7.39994C49.6626 7.47831 49.7692 7.52234 49.8803 7.52234Z" fill="#FC1AA0"/>
<path d="M45.6913 6.68617C46.0136 6.18427 46.4419 5.75866 46.9461 5.43909C46.6944 5.27699 46.4604 5.08894 46.2481 4.87804C46.0354 4.66643 45.8468 4.43188 45.686 4.17871C45.526 4.43249 45.3374 4.66712 45.1238 4.87804C44.9132 5.08865 44.681 5.27669 44.4312 5.43909C44.6834 5.59939 44.9175 5.78663 45.1292 5.99749C45.3415 6.20562 45.53 6.43659 45.6913 6.68617Z" fill="#FC1AA0"/>
<path d="M51.0465 12.6294C50.7645 12.3486 50.5143 12.0377 50.3005 11.7021C50.0849 12.0371 49.834 12.3479 49.5519 12.6294C49.271 12.9114 48.9592 13.1611 48.6226 13.3738C48.9586 13.5873 49.2703 13.8369 49.5519 14.1182C49.8334 14.4002 50.0843 14.711 50.3005 15.0454C50.515 14.7104 50.7651 14.3995 51.0465 14.1182C51.3281 13.8369 51.6398 13.5873 51.9759 13.3738C51.6392 13.1611 51.3274 12.9114 51.0465 12.6294Z" fill="#FC1AA0"/>
</svg>
