<?xml version="1.0" encoding="UTF-8"?>
<!DOCTYPE svg PUBLIC "-//W3C//DTD SVG 1.1//EN" "http://www.w3.org/Graphics/SVG/1.1/DTD/svg11.dtd">
<svg xmlns="http://www.w3.org/2000/svg" version="1.1" width="85px" height="40px" style="shape-rendering:geometricPrecision; text-rendering:geometricPrecision; image-rendering:optimizeQuality; fill-rule:evenodd; clip-rule:evenodd" xmlns:xlink="http://www.w3.org/1999/xlink">
<g><path style="opacity:0.67" fill="#06c9fa" d="M 73.5,10.5 C 71.6119,9.72487 69.6119,9.72487 67.5,10.5C 65.8583,8.91917 63.8583,8.2525 61.5,8.5C 58.0381,7.51836 54.3714,7.18503 50.5,7.5C 48.1667,7.5 45.8333,7.5 43.5,7.5C 41.2729,6.59942 40.2729,4.93275 40.5,2.5C 48.1739,2.33365 55.8406,2.50031 63.5,3C 68.4518,3.46387 71.7852,5.96387 73.5,10.5 Z"/></g>
<g><path style="opacity:0.405" fill="#e8126f" d="M 35.5,3.5 C 35.4142,4.4959 35.7476,5.32924 36.5,6C 32.879,6.45573 30.2123,8.28906 28.5,11.5C 27.5,12.8333 26.5,14.1667 25.5,15.5C 24.1667,15.5 22.8333,15.5 21.5,15.5C 21.5,14.1667 21.5,12.8333 21.5,11.5C 24.0979,4.85175 28.7645,2.18508 35.5,3.5 Z"/></g>
<g><path style="opacity:1" fill="#0d6fb7" d="M 50.5,7.5 C 54.3714,7.18503 58.0381,7.51836 61.5,8.5C 56.597,8.69352 56.2637,10.0269 60.5,12.5C 57.5,12.5 54.5,12.5 51.5,12.5C 49.5989,11.065 49.2655,9.39829 50.5,7.5 Z"/></g>
<g><path style="opacity:1" fill="#b90f6a" d="M 35.5,3.5 C 38.2427,5.23931 40.2427,7.57265 41.5,10.5C 39.0971,10.448 36.7638,10.7814 34.5,11.5C 32.5,11.5 30.5,11.5 28.5,11.5C 30.2123,8.28906 32.879,6.45573 36.5,6C 35.7476,5.32924 35.4142,4.4959 35.5,3.5 Z"/></g>
<g><path style="opacity:0.918" fill="#0d8cc5" d="M 43.5,7.5 C 45.8333,7.5 48.1667,7.5 50.5,7.5C 49.2655,9.39829 49.5989,11.065 51.5,12.5C 47.4635,12.8242 44.7968,11.1576 43.5,7.5 Z"/></g>
<g><path style="opacity:0.91" fill="#0b8acb" d="M 73.5,10.5 C 74.3382,10.8417 74.6716,11.5084 74.5,12.5C 72.7839,12.6287 71.1172,12.962 69.5,13.5C 68.8333,12.5 68.1667,11.5 67.5,10.5C 69.6119,9.72487 71.6119,9.72487 73.5,10.5 Z"/></g>
<g><path style="opacity:1" fill="#15409a" d="M 61.5,8.5 C 63.8583,8.2525 65.8583,8.91917 67.5,10.5C 68.1667,11.5 68.8333,12.5 69.5,13.5C 69.1568,15.4832 69.8235,16.8166 71.5,17.5C 69.4284,20.4108 66.7617,21.0775 63.5,19.5C 62.8333,19.1667 62.1667,18.8333 61.5,18.5C 64.2844,16.0484 63.951,14.0484 60.5,12.5C 56.2637,10.0269 56.597,8.69352 61.5,8.5 Z"/></g>
<g><path style="opacity:1" fill="#860961" d="M 28.5,11.5 C 30.5,11.5 32.5,11.5 34.5,11.5C 33.075,12.922 32.075,14.5887 31.5,16.5C 28.7336,18.0707 25.7336,19.0707 22.5,19.5C 23.5,18.1667 24.5,16.8333 25.5,15.5C 26.5,14.1667 27.5,12.8333 28.5,11.5 Z"/></g>
<g><path style="opacity:1" fill="#1d125f" d="M 41.5,10.5 C 42.5,10.8333 43.1667,11.5 43.5,12.5C 41.5,12.5 39.5,12.5 37.5,12.5C 37.3059,15.3297 36.6392,17.9963 35.5,20.5C 34.1667,19.1667 32.8333,17.8333 31.5,16.5C 32.075,14.5887 33.075,12.922 34.5,11.5C 36.7638,10.7814 39.0971,10.448 41.5,10.5 Z"/></g>
<g><path style="opacity:1" fill="#0e59b0" d="M 74.5,12.5 C 74.5,12.8333 74.5,13.1667 74.5,13.5C 73.6588,14.9264 72.6588,16.2597 71.5,17.5C 69.8235,16.8166 69.1568,15.4832 69.5,13.5C 71.1172,12.962 72.7839,12.6287 74.5,12.5 Z"/></g>
<g><path style="opacity:1" fill="#c0106a" d="M 21.5,11.5 C 21.5,12.8333 21.5,14.1667 21.5,15.5C 22.8333,15.5 24.1667,15.5 25.5,15.5C 24.5,16.8333 23.5,18.1667 22.5,19.5C 21.1667,19.5 19.8333,19.5 18.5,19.5C 18.6287,17.7839 18.962,16.1172 19.5,14.5C 19.9321,13.2905 20.5987,12.2905 21.5,11.5 Z"/></g>
<g><path style="opacity:1" fill="#0e2e70" d="M 43.5,12.5 C 44.5,13.8333 45.5,15.1667 46.5,16.5C 45.8333,16.5 45.1667,16.5 44.5,16.5C 43.6782,14.2721 42.3448,13.6054 40.5,14.5C 41.12,17.9844 40.4534,21.3177 38.5,24.5C 37.0256,23.5637 36.0256,22.2303 35.5,20.5C 36.6392,17.9963 37.3059,15.3297 37.5,12.5C 39.5,12.5 41.5,12.5 43.5,12.5 Z"/></g>
<g><path style="opacity:1" fill="#560756" d="M 31.5,16.5 C 30.5589,18.7721 29.2255,20.7721 27.5,22.5C 26.8333,22.5 26.1667,22.5 25.5,22.5C 23.4352,22.5172 21.4352,22.8505 19.5,23.5C 20.5,22.1667 21.5,20.8333 22.5,19.5C 25.7336,19.0707 28.7336,18.0707 31.5,16.5 Z"/></g>
<g><path style="opacity:0.973" fill="#e0136f" d="M 61.5,18.5 C 62.1667,18.8333 62.8333,19.1667 63.5,19.5C 64.5116,20.8717 65.5116,22.205 66.5,23.5C 66.5,23.8333 66.5,24.1667 66.5,24.5C 65.8166,26.1765 64.4832,26.8432 62.5,26.5C 62.0472,25.5416 61.3805,24.7083 60.5,24C 57.5877,23.7248 54.921,22.8914 52.5,21.5C 51.596,20.791 51.2627,19.791 51.5,18.5C 54.8333,18.5 58.1667,18.5 61.5,18.5 Z"/></g>
<g><path style="opacity:0.765" fill="#111a6b" d="M 74.5,13.5 C 75.6723,18.51 74.0056,22.51 69.5,25.5C 69.1667,25.5 68.8333,25.5 68.5,25.5C 67.8333,25.1667 67.1667,24.8333 66.5,24.5C 66.5,24.1667 66.5,23.8333 66.5,23.5C 70.4267,23.7438 72.76,21.9104 73.5,18C 72.9056,17.5357 72.2389,17.369 71.5,17.5C 72.6588,16.2597 73.6588,14.9264 74.5,13.5 Z"/></g>
<g><path style="opacity:1" fill="#151882" d="M 71.5,17.5 C 72.2389,17.369 72.9056,17.5357 73.5,18C 72.76,21.9104 70.4267,23.7438 66.5,23.5C 65.5116,22.205 64.5116,20.8717 63.5,19.5C 66.7617,21.0775 69.4284,20.4108 71.5,17.5 Z"/></g>
<g><path style="opacity:1" fill="#930b61" d="M 19.5,14.5 C 18.962,16.1172 18.6287,17.7839 18.5,19.5C 19.8333,19.5 21.1667,19.5 22.5,19.5C 21.5,20.8333 20.5,22.1667 19.5,23.5C 18.5,24.8333 17.5,26.1667 16.5,27.5C 14.0411,27.69 12.3745,26.69 11.5,24.5C 13.8171,20.8536 16.4838,17.5203 19.5,14.5 Z"/></g>
<g><path style="opacity:0.647" fill="#0f4583" d="M 44.5,16.5 C 41.5081,17.1319 40.8414,18.7985 42.5,21.5C 40.8955,23.1789 40.2289,25.1789 40.5,27.5C 39.5987,26.7095 38.9321,25.7095 38.5,24.5C 40.4534,21.3177 41.12,17.9844 40.5,14.5C 42.3448,13.6054 43.6782,14.2721 44.5,16.5 Z"/></g>
<g><path style="opacity:1" fill="#10649c" d="M 44.5,16.5 C 45.1667,16.5 45.8333,16.5 46.5,16.5C 46.8333,17.1667 47.1667,17.8333 47.5,18.5C 45.3652,18.147 44.0319,18.9803 43.5,21C 45.1667,24 46.8333,27 48.5,30C 47.6293,31.3638 46.6293,32.5305 45.5,33.5C 43.3674,31.9095 41.7007,29.9095 40.5,27.5C 40.2289,25.1789 40.8955,23.1789 42.5,21.5C 40.8414,18.7985 41.5081,17.1319 44.5,16.5 Z"/></g>
<g><path style="opacity:1" fill="#a50d65" d="M 52.5,21.5 C 54.921,22.8914 57.5877,23.7248 60.5,24C 61.3805,24.7083 62.0472,25.5416 62.5,26.5C 60.3792,26.3253 58.3792,26.6586 56.5,27.5C 55.1667,25.5 53.8333,23.5 52.5,21.5 Z"/></g>
<g><path style="opacity:1" fill="#22024f" d="M 25.5,22.5 C 22.5244,26.4815 19.5244,30.4815 16.5,34.5C 14.9547,35.4519 13.288,35.7852 11.5,35.5C 12.6551,32.5251 14.3218,29.8584 16.5,27.5C 17.5,26.1667 18.5,24.8333 19.5,23.5C 21.4352,22.8505 23.4352,22.5172 25.5,22.5 Z"/></g>
<g><path style="opacity:1" fill="#ab0c67" d="M 66.5,24.5 C 67.1667,24.8333 67.8333,25.1667 68.5,25.5C 68.5,26.5 68.5,27.5 68.5,28.5C 65.9899,28.9465 63.9899,28.2798 62.5,26.5C 64.4832,26.8432 65.8166,26.1765 66.5,24.5 Z"/></g>
<g><path style="opacity:1" fill="#70085b" d="M 68.5,25.5 C 68.8333,25.5 69.1667,25.5 69.5,25.5C 69.5569,26.609 69.8902,27.609 70.5,28.5C 70.5,29.5 70.5,30.5 70.5,31.5C 66.8455,31.0578 63.1788,30.7244 59.5,30.5C 58.1667,29.8333 57.1667,28.8333 56.5,27.5C 58.3792,26.6586 60.3792,26.3253 62.5,26.5C 63.9899,28.2798 65.9899,28.9465 68.5,28.5C 68.5,27.5 68.5,26.5 68.5,25.5 Z"/></g>
<g><path style="opacity:0.527" fill="#03d4db" d="M 54.5,28.5 C 56.7188,30.5755 58.7188,32.9088 60.5,35.5C 58.2573,36.4742 55.924,36.8076 53.5,36.5C 52.0059,34.1495 50.6726,31.6495 49.5,29C 50.7484,25.927 52.415,25.7603 54.5,28.5 Z"/></g>
<g><path style="opacity:1" fill="#540757" d="M 11.5,24.5 C 12.3745,26.69 14.0411,27.69 16.5,27.5C 14.3218,29.8584 12.6551,32.5251 11.5,35.5C 8.91791,35.9746 6.91791,35.3079 5.5,33.5C 7.5,30.5 9.5,27.5 11.5,24.5 Z"/></g>
<g><path style="opacity:1" fill="#4f0755" d="M 70.5,28.5 C 71.9063,28.9731 72.573,29.9731 72.5,31.5C 72.0377,32.8799 71.0377,33.5466 69.5,33.5C 66.6731,32.3369 64.0065,32.3369 61.5,33.5C 60.0937,33.0269 59.427,32.0269 59.5,30.5C 63.1788,30.7244 66.8455,31.0578 70.5,31.5C 70.5,30.5 70.5,29.5 70.5,28.5 Z"/></g>
<g><path style="opacity:0.927" fill="#0d96bc" d="M 47.5,18.5 C 50.6046,21.2749 52.9379,24.6082 54.5,28.5C 52.415,25.7603 50.7484,25.927 49.5,29C 50.6726,31.6495 52.0059,34.1495 53.5,36.5C 51.1432,36.6633 48.8098,36.4966 46.5,36C 45.7476,35.3292 45.4142,34.4959 45.5,33.5C 46.6293,32.5305 47.6293,31.3638 48.5,30C 46.8333,27 45.1667,24 43.5,21C 44.0319,18.9803 45.3652,18.147 47.5,18.5 Z"/></g>
<g><path style="opacity:0.94" fill="#20044a" d="M 72.5,31.5 C 74.3386,32.5077 75.6719,34.0077 76.5,36C 71.798,36.8283 67.1313,36.6616 62.5,35.5C 62.1373,34.8165 61.8039,34.1499 61.5,33.5C 64.0065,32.3369 66.6731,32.3369 69.5,33.5C 71.0377,33.5466 72.0377,32.8799 72.5,31.5 Z"/></g>
<g><path style="opacity:0.197" fill="#12033f" d="M 25.5,22.5 C 26.1667,22.5 26.8333,22.5 27.5,22.5C 23.9984,26.8407 20.6651,31.3407 17.5,36C 12.798,36.8283 8.13134,36.6616 3.5,35.5C 3.85549,34.4777 4.52216,33.811 5.5,33.5C 6.91791,35.3079 8.91791,35.9746 11.5,35.5C 13.288,35.7852 14.9547,35.4519 16.5,34.5C 19.5244,30.4815 22.5244,26.4815 25.5,22.5 Z"/></g>
</svg>
